<?xml version="1.0" encoding="UTF-8"?><svg id="Capa_1" xmlns="http://www.w3.org/2000/svg" viewBox="0 0 769.64 341.58"><defs><style>.cls-1{fill:#003750;stroke-width:0px;}</style></defs><path class="cls-1" d="m374.88,106.25c-17.72-.57-34.82,6.53-46.93,19.48-12.4,13.13-19.09,30.65-18.59,48.7-1.2,36.43,27.36,66.94,63.79,68.14,14.55.48,28.86-3.87,40.68-12.36,11.06-7.53,18.94-18.88,22.14-31.87h-35.41c-2,4.51-5.42,8.24-9.74,10.62-4.61,2.52-9.81,3.74-15.05,3.54-7.7.25-15.24-2.26-21.25-7.08-5.79-5.24-9.29-12.56-9.74-20.36h93.85l.88-11.52c.39-17.88-5.93-35.25-17.71-48.7-12.11-12.85-29.3-19.66-46.93-18.59Zm-30.11,54.02v-.89c1.03-6.87,4.48-13.16,9.74-17.71,5.51-4.39,12.45-6.6,19.48-6.2,7.17-.26,14.16,2.28,19.48,7.08,5.08,4.69,8.5,10.9,9.74,17.71h-58.44Z"/><path class="cls-1" d="m554.62,124.84c-9.48-12.78-24.86-19.8-40.73-18.59-16.27-.63-31.93,6.22-42.5,18.59-10.7,12.91-16.36,29.25-15.94,46.01-.57,16.78,5.11,33.18,15.94,46.01,10.57,12.38,26.23,19.23,42.5,18.59,14.69,1.04,28.95-5.26,38.08-16.82v17.71c.27,6.9-2.29,13.62-7.08,18.59-5.59,4.95-12.91,7.5-20.37,7.08-14.17,0-23.01-5.32-24.79-16.82h-35.41c1.37,12.62,7.36,24.29,16.82,32.76,11.62,10.43,26.9,15.84,42.5,15.05,17.01,1.01,33.67-5.08,46.01-16.82,11.25-11.23,17.34-26.61,16.82-42.5v-124.8h-31.84v15.94Zm-1.77,46.93c.33,9.09-2.84,17.96-8.86,24.79-12.32,12.71-32.61,13.02-45.31.7-.24-.23-.47-.46-.7-.7-11.8-14.42-11.8-35.16,0-49.58,12.32-12.71,32.61-13.02,45.31-.7.24.23.47.46.7.7,6.28,6.66,9.5,15.65,8.86,24.79Z"/><path class="cls-1" d="m700.72,108.9v15.94c-9.11-12.75-24.22-19.8-39.84-18.59-16.26-.63-31.92,6.22-42.5,18.59-10.7,12.91-16.36,29.25-15.94,46.01-.57,16.78,5.11,33.18,15.94,46.01,10.57,12.38,26.23,19.23,42.5,18.59,14.69,1.04,28.95-5.26,38.08-16.82v17.71c.27,6.9-2.29,13.62-7.08,18.59-5.59,4.95-12.91,7.5-20.37,7.08-14.17,0-23.01-5.32-24.79-16.82h-35.41c1.37,12.62,7.36,24.29,16.83,32.76,11.62,10.43,26.9,15.84,42.5,15.05,17.01,1.01,33.67-5.08,46.01-16.82,11.25-11.23,17.34-26.61,16.82-42.5v-124.8h-32.73Zm-.88,62.87c-.09,9.02-3.21,17.75-8.86,24.79-12.32,12.71-32.61,13.02-45.31.7-.24-.23-.47-.46-.7-.7-11.8-14.42-11.8-35.16,0-49.58,12.32-12.71,32.61-13.02,45.31-.7.24.23.47.46.7.7,6.28,6.66,9.5,15.65,8.86,24.79Z"/><path class="cls-1" d="m138.48,10.98c-102.71,0-193.91,319.63,0,319.63S241.19,11.86,138.48,10.98Zm46.03,178.5c.88.89-26.56,38.96-23.9,46.93-5.32-6.2,1.77-14.17,5.32-20.36,3.96-6.43,7.22-13.25,9.74-20.37-.89-1.77-5.32,0-5.32-2.65,1.77-10.62,8.86-20.36,7.97-26.56.89-2.65-11.5-11.5-21.25-17.71-7.08-3.54-8.86-7.97-32.76-6.2-1.77,0-6.2-1.77-6.2-4.43,6.2,8.86,15.94-2.65,26.57,0,7.97,1.77,17.71,6.2,20.36,6.2,3.39-3.16,4.76-7.93,3.54-12.4-1.77-6.2-9.74-9.74-11.5-17.71-2.65-9.74,5.32-29.22,5.32-29.22,3.4-9.17,7.54-18.04,12.38-26.54,0,0,0-.02,0-.02h.02s-.01.01-.02.02c.81.23-11.5,39.84-11.5,47.79,0,8.86,8.86,13.28,11.5,23.9.89,7.97-4.43,15.05-3.54,20.37,1.77,7.97,15.05,5.32,15.94,13.28-.89,9.74-7.08,15.05-8.86,23.9,2.65.89,5.32.89,6.2,1.77Z"/></svg>